<svg
    xmlns="http://www.w3.org/2000/svg"
    viewBox="0 0 512 512"
    id="vector">
    <path
        id="path"
        d="M 294.656 13.014 C 292.125 10.958 288.793 10.172 285.611 10.881 L 8.278 74.881 C 3.397 76.003 -0.047 80.369 0 85.377 L 0 448.044 C 0.002 453.307 3.843 457.783 9.045 458.583 L 286.378 501.25 C 292.201 502.145 297.647 498.151 298.542 492.329 C 298.624 491.794 298.666 491.253 298.666 490.712 L 298.666 21.377 C 298.676 18.124 297.199 15.045 294.656 13.014 Z"
        fill="#1565c0"/>
    <path
        id="path_1"
        d="M 501.334 458.71 L 288 458.71 C 282.109 458.71 277.333 453.934 277.333 448.043 C 277.333 442.152 282.109 437.376 288 437.376 L 490.667 437.376 L 490.667 74.71 L 288 74.71 C 282.109 74.71 277.333 69.934 277.333 64.043 C 277.333 58.152 282.109 53.377 288 53.377 L 501.333 53.377 C 507.224 53.377 512 58.153 512 64.044 L 512 448.044 C 512 453.935 507.225 458.71 501.334 458.71 Z"
        fill="#1565c0"/>
    <path
        id="path_2"
        d="M 181.334 352.044 C 176.581 352.039 172.406 348.889 171.094 344.321 L 138.667 230.87 L 106.24 344.321 C 103.898 349.982 97.41 352.673 91.748 350.331 C 89.026 349.205 86.864 347.043 85.738 344.321 L 43.072 194.988 C 41.286 189.374 44.39 183.376 50.004 181.59 C 55.618 179.804 61.616 182.908 63.402 188.522 C 63.465 188.72 63.522 188.92 63.574 189.121 L 96 302.55 L 128.427 189.1 C 130.769 183.439 137.257 180.748 142.919 183.09 C 145.641 184.216 147.803 186.378 148.929 189.1 L 181.334 302.551 L 213.761 189.122 C 215.296 183.508 221.092 180.201 226.706 181.736 C 226.786 181.758 226.865 181.781 226.945 181.804 C 232.605 183.426 235.88 189.327 234.262 194.988 L 191.595 344.321 C 190.281 348.897 186.094 352.048 181.334 352.044 Z"
        fill="#fafafa"/>
    <path
        id="path_3"
        d="M 458.667 138.71 L 288 138.71 C 282.109 138.71 277.333 133.934 277.333 128.043 C 277.333 122.152 282.109 117.376 288 117.376 L 458.667 117.376 C 464.558 117.376 469.334 122.152 469.334 128.043 C 469.334 133.935 464.558 138.71 458.667 138.71 Z"
        fill="#1565c0"/>
    <path
        id="path_4"
        d="M 458.667 202.71 L 288 202.71 C 282.109 202.71 277.333 197.934 277.333 192.043 C 277.333 186.152 282.109 181.376 288 181.376 L 458.667 181.376 C 464.558 181.376 469.334 186.152 469.334 192.043 C 469.334 197.934 464.558 202.71 458.667 202.71 Z"
        fill="#1565c0"/>
    <path
        id="path_5"
        d="M 458.667 266.71 L 288 266.71 C 282.109 266.71 277.333 261.934 277.333 256.043 C 277.333 250.152 282.109 245.376 288 245.376 L 458.667 245.376 C 464.558 245.376 469.334 250.152 469.334 256.043 C 469.334 261.935 464.558 266.71 458.667 266.71 Z"
        fill="#1565c0"/>
    <path
        id="path_6"
        d="M 458.667 330.71 L 288 330.71 C 282.109 330.71 277.333 325.934 277.333 320.043 C 277.333 314.152 282.109 309.376 288 309.376 L 458.667 309.376 C 464.558 309.376 469.334 314.152 469.334 320.043 C 469.334 325.935 464.558 330.71 458.667 330.71 Z"
        fill="#1565c0"/>
    <path
        id="path_7"
        d="M 458.667 394.71 L 288 394.71 C 282.109 394.71 277.333 389.934 277.333 384.043 C 277.333 378.152 282.109 373.376 288 373.376 L 458.667 373.376 C 464.558 373.376 469.334 378.152 469.334 384.043 C 469.334 389.935 464.558 394.71 458.667 394.71 Z"
        fill="#1565c0"/>
</svg>
