<svg
    xmlns="http://www.w3.org/2000/svg"
    viewBox="0 0 56 56"
    id="vector">
    <path
        id="path"
        d="M 36.985 0 L 7.963 0 C 7.155 0 6.5 0.655 6.5 1.926 L 6.5 55 C 6.5 55.345 7.155 56 7.963 56 L 48.037 56 C 48.845 56 49.5 55.345 49.5 55 L 49.5 12.978 C 49.5 12.282 49.407 12.058 49.243 11.893 L 37.607 0.257 C 37.442 0.093 37.218 0 36.985 0 Z"
        fill="#e9e9e0"/>
    <path
        id="path_1"
        d="M 48.037 56 L 7.963 56 C 7.155 56 6.5 55.345 6.5 54.537 L 6.5 39 L 49.5 39 L 49.5 54.537 C 49.5 55.345 48.845 56 48.037 56 Z"
        fill="#659c35"/>
    <path
        id="path_2"
        d="M 37.5 0.151 L 37.5 12 L 49.349 12 Z"
        fill="#d9d7ca"/>
    <path
        id="path_3"
        d="M 17.385 53 L 15.744 53 L 15.744 42.924 L 18.642 42.924 C 19.07 42.924 19.494 42.992 19.913 43.129 C 20.332 43.266 20.708 43.471 21.041 43.744 C 21.374 44.017 21.643 44.348 21.848 44.735 C 22.053 45.122 22.156 45.557 22.156 46.041 C 22.156 46.552 22.069 47.014 21.896 47.429 C 21.723 47.844 21.481 48.193 21.171 48.475 C 20.861 48.757 20.487 48.976 20.05 49.131 C 19.613 49.286 19.129 49.363 18.601 49.363 L 17.384 49.363 L 17.384 53 Z M 17.385 44.168 L 17.385 48.16 L 18.889 48.16 C 19.089 48.16 19.287 48.126 19.484 48.057 C 19.68 47.989 19.86 47.877 20.024 47.722 C 20.188 47.567 20.32 47.351 20.42 47.073 C 20.52 46.795 20.57 46.451 20.57 46.041 C 20.57 45.877 20.547 45.687 20.502 45.474 C 20.456 45.26 20.363 45.055 20.222 44.859 C 20.08 44.663 19.882 44.499 19.627 44.367 C 19.372 44.235 19.034 44.169 18.615 44.169 L 17.385 44.169 Z"
        fill="#ffffff"/>
    <path
        id="path_4"
        d="M 31.316 42.924 L 31.316 53 L 29.648 53 L 25.697 46.055 L 25.697 53 L 24.029 53 L 24.029 42.924 L 25.697 42.924 L 29.648 49.869 L 29.648 42.924 L 31.316 42.924 Z"
        fill="#ffffff"/>
    <path
        id="path_5"
        d="M 41.16 47.805 L 41.16 51.701 C 40.95 51.966 40.716 52.181 40.456 52.35 C 40.196 52.519 39.923 52.658 39.636 52.767 C 39.349 52.876 39.052 52.954 38.747 53 C 38.441 53.046 38.139 53.068 37.838 53.068 C 37.236 53.068 36.683 52.959 36.177 52.74 C 35.671 52.521 35.229 52.198 34.851 51.769 C 34.473 51.34 34.176 50.803 33.962 50.156 C 33.748 49.509 33.641 48.761 33.641 47.914 C 33.641 47.067 33.748 46.321 33.962 45.679 C 34.176 45.036 34.472 44.501 34.851 44.073 C 35.229 43.644 35.673 43.319 36.184 43.095 C 36.694 42.871 37.246 42.76 37.838 42.76 C 38.385 42.76 38.895 42.851 39.369 43.033 C 39.843 43.216 40.266 43.489 40.64 43.853 L 39.505 44.865 C 39.286 44.6 39.035 44.409 38.753 44.291 C 38.47 44.173 38.179 44.113 37.878 44.113 C 37.541 44.113 37.219 44.176 36.914 44.304 C 36.608 44.432 36.335 44.648 36.094 44.953 C 35.852 45.259 35.663 45.652 35.527 46.136 C 35.391 46.62 35.317 47.211 35.308 47.913 C 35.317 48.597 35.388 49.189 35.52 49.69 C 35.652 50.191 35.834 50.601 36.067 50.92 C 36.3 51.239 36.564 51.476 36.86 51.631 C 37.156 51.786 37.468 51.863 37.797 51.863 C 37.897 51.863 38.031 51.856 38.2 51.842 C 38.368 51.828 38.537 51.806 38.706 51.774 C 38.874 51.742 39.036 51.699 39.191 51.644 C 39.346 51.589 39.46 51.512 39.533 51.412 L 39.533 48.924 L 37.824 48.924 L 37.824 47.803 L 41.16 47.803 Z"
        fill="#ffffff"/>
    <path
        id="path_6"
        d="M 18.931 14.431 M 14.362 14.431 C 14.362 13.22 14.844 12.057 15.7 11.2 C 16.557 10.344 17.72 9.862 18.931 9.862 C 20.142 9.862 21.305 10.344 22.162 11.2 C 23.018 12.057 23.5 13.22 23.5 14.431 C 23.503 15.398 23.199 16.341 22.633 17.124 C 22.066 17.907 21.265 18.491 20.346 18.79 C 19.426 19.089 18.436 19.089 17.516 18.79 C 16.597 18.491 15.796 17.907 15.229 17.124 C 14.663 16.341 14.359 15.398 14.362 14.431"
        fill="#f3d55b"/>
    <path
        id="path_7"
        d="M 6.5 39 L 17.5 39 L 49.5 39 L 49.5 28 L 39.5 18.5 L 29 30 L 23.517 24.517 Z"
        fill="#88c057"/>
</svg>
