<svg
    xmlns="http://www.w3.org/2000/svg"
    viewBox="0 0 56 56"
    id="vector">
    <path
        id="path"
        d="M 36.985 0 L 7.963 0 C 7.155 0 6.5 0.655 6.5 1.926 L 6.5 55 C 6.5 55.345 7.155 56 7.963 56 L 48.037 56 C 48.845 56 49.5 55.345 49.5 55 L 49.5 12.978 C 49.5 12.282 49.407 12.058 49.243 11.893 L 37.607 0.257 C 37.442 0.093 37.218 0 36.985 0 Z"
        fill="#e9e9e0"/>
    <path
        id="path_1"
        d="M 37.5 0.151 L 37.5 12 L 49.349 12 Z"
        fill="#d9d7ca"/>
    <path
        id="path_2"
        d="M 19.514 33.324 L 19.514 33.324 C 19.166 33.324 18.832 33.211 18.547 32.998 C 17.506 32.217 17.366 31.348 17.432 30.756 C 17.614 29.128 19.627 27.424 23.417 25.688 C 24.921 22.392 26.352 18.331 27.205 14.938 C 26.207 12.766 25.237 9.948 25.944 8.295 C 26.192 7.716 26.501 7.272 27.078 7.08 C 27.306 7.004 27.882 6.908 28.094 6.908 C 28.598 6.908 29.041 7.557 29.355 7.957 C 29.65 8.333 30.319 9.13 28.982 14.759 C 30.33 17.543 32.24 20.379 34.07 22.321 C 35.381 22.084 36.509 21.963 37.428 21.963 C 38.994 21.963 39.943 22.328 40.33 23.08 C 40.65 23.702 40.519 24.429 39.94 25.24 C 39.383 26.019 38.615 26.431 37.72 26.431 C 36.504 26.431 35.088 25.663 33.509 24.146 C 30.672 24.739 27.359 25.797 24.681 26.968 C 23.845 28.742 23.044 30.171 22.298 31.219 C 21.273 32.654 20.389 33.324 19.514 33.324 Z M 22.176 28.198 C 20.039 29.399 19.168 30.386 19.105 30.942 C 19.095 31.034 19.068 31.276 19.536 31.634 C 19.685 31.587 20.555 31.19 22.176 28.198 Z M 35.813 23.756 C 36.628 24.383 36.827 24.7 37.36 24.7 C 37.594 24.7 38.261 24.69 38.57 24.259 C 38.719 24.05 38.777 23.916 38.8 23.844 C 38.677 23.779 38.514 23.647 37.625 23.647 C 37.12 23.648 36.485 23.67 35.813 23.756 Z M 28.343 17.174 C 27.628 19.648 26.684 22.319 25.669 24.738 C 27.759 23.927 30.031 23.219 32.165 22.718 C 30.815 21.15 29.466 19.192 28.343 17.174 Z M 27.736 8.712 C 27.638 8.745 26.406 10.469 27.832 11.928 C 28.781 9.813 27.779 8.698 27.736 8.712 Z"
        fill="#cc4b4c"/>
    <path
        id="path_3"
        d="M 48.037 56 L 7.963 56 C 7.155 56 6.5 55.345 6.5 54.537 L 6.5 39 L 49.5 39 L 49.5 54.537 C 49.5 55.345 48.845 56 48.037 56 Z"
        fill="#cc4b4c"/>
    <path
        id="path_4"
        d="M 17.385 53 L 15.744 53 L 15.744 42.924 L 18.642 42.924 C 19.07 42.924 19.494 42.992 19.913 43.129 C 20.332 43.266 20.708 43.471 21.041 43.744 C 21.374 44.017 21.643 44.348 21.848 44.735 C 22.053 45.122 22.156 45.557 22.156 46.041 C 22.156 46.552 22.069 47.014 21.896 47.429 C 21.723 47.844 21.481 48.193 21.171 48.475 C 20.861 48.757 20.487 48.976 20.05 49.131 C 19.613 49.286 19.129 49.363 18.601 49.363 L 17.384 49.363 L 17.384 53 Z M 17.385 44.168 L 17.385 48.16 L 18.889 48.16 C 19.089 48.16 19.287 48.126 19.484 48.057 C 19.68 47.989 19.86 47.877 20.024 47.722 C 20.188 47.567 20.32 47.351 20.42 47.073 C 20.52 46.795 20.57 46.451 20.57 46.041 C 20.57 45.877 20.547 45.687 20.502 45.474 C 20.456 45.26 20.363 45.055 20.222 44.859 C 20.08 44.663 19.882 44.499 19.627 44.367 C 19.372 44.235 19.034 44.169 18.615 44.169 L 17.385 44.169 Z"
        fill="#ffffff"/>
    <path
        id="path_5"
        d="M 32.219 47.682 C 32.219 48.511 32.13 49.22 31.952 49.808 C 31.774 50.396 31.549 50.888 31.275 51.285 C 31.001 51.682 30.694 51.994 30.352 52.222 C 30.01 52.45 29.68 52.62 29.361 52.735 C 29.042 52.849 28.75 52.922 28.486 52.954 C 28.222 52.984 28.026 53 27.898 53 L 24.084 53 L 24.084 42.924 L 27.119 42.924 C 27.967 42.924 28.712 43.059 29.354 43.327 C 29.996 43.595 30.53 43.954 30.954 44.4 C 31.378 44.846 31.694 45.355 31.904 45.924 C 32.114 46.494 32.219 47.08 32.219 47.682 Z M 27.352 51.797 C 28.464 51.797 29.266 51.442 29.758 50.731 C 30.25 50.02 30.496 48.99 30.496 47.641 C 30.496 47.222 30.446 46.807 30.346 46.397 C 30.245 45.987 30.052 45.616 29.765 45.283 C 29.478 44.95 29.088 44.681 28.596 44.476 C 28.104 44.271 27.466 44.168 26.682 44.168 L 25.725 44.168 L 25.725 51.797 L 27.352 51.797 Z"
        fill="#ffffff"/>
    <path
        id="path_6"
        d="M 36.266 44.168 L 36.266 47.34 L 40.477 47.34 L 40.477 48.461 L 36.266 48.461 L 36.266 53 L 34.598 53 L 34.598 42.924 L 40.9 42.924 L 40.9 44.168 L 36.266 44.168 Z"
        fill="#ffffff"/>
</svg>
