<svg
    xmlns="http://www.w3.org/2000/svg"
    viewBox="0 0 30 40"
    id="vector">
    <path
        id="path"
        d="M 27.5 40 C 28.163 40 28.799 39.736 29.268 39.268 C 29.736 38.799 30 38.163 30 37.5 L 30 2.5 C 30 1.837 29.736 1.201 29.268 0.732 C 28.799 0.264 28.163 0 27.5 0 L 11.25 0 C 10.226 0 8.957 0.525 8.233 1.25 L 1.25 8.231 C 0.526 8.956 0 10.225 0 11.25 L 0 37.5 C 0 38.163 0.264 38.799 0.732 39.268 C 1.201 39.736 1.837 40 2.5 40 L 27.5 40 Z M 2.5 37.5 L 27.5 37.5 L 27.5 2.5 L 11.25 2.5 L 11.25 8.75 C 11.25 10.131 10.128 11.25 8.75 11.25 L 2.5 11.25 L 2.5 37.5 Z M 22.5 32.5 L 7.5 32.5 C 6.81 32.5 6.25 33.063 6.25 33.75 C 6.25 34.444 6.81 35 7.5 35 L 22.5 35 C 23.19 35 23.75 34.444 23.75 33.75 C 23.75 33.062 23.19 32.5 22.5 32.5 Z M 22.5 26.25 L 7.5 26.25 C 6.81 26.25 6.25 26.813 6.25 27.5 C 6.25 28.194 6.81 28.75 7.5 28.75 L 22.5 28.75 C 23.19 28.75 23.75 28.194 23.75 27.5 C 23.75 26.812 23.19 26.25 22.5 26.25 Z M 22.5 20 L 7.5 20 C 6.81 20 6.25 20.563 6.25 21.25 C 6.25 21.944 6.81 22.5 7.5 22.5 L 22.5 22.5 C 23.19 22.5 23.75 21.944 23.75 21.25 C 23.75 20.562 23.19 20 22.5 20 Z M 22.5 13.75 L 7.5 13.75 C 6.81 13.75 6.25 14.313 6.25 15 C 6.25 15.694 6.81 16.25 7.5 16.25 L 22.5 16.25 C 23.19 16.25 23.75 15.694 23.75 15 C 23.75 14.312 23.19 13.75 22.5 13.75 Z M 15 10 L 22.5 10 C 23.19 10 23.75 9.444 23.75 8.75 C 23.75 8.062 23.19 7.5 22.5 7.5 L 15 7.5 C 14.31 7.5 13.75 8.063 13.75 8.75 C 13.75 9.444 14.31 10 15 10 Z M 8.75 4.269 L 8.75 8.75 L 4.267 8.75 L 8.75 4.269 Z"
        fill="#0a386a"
        fill-rule="evenodd"/>
</svg>
