<svg
    xmlns="http://www.w3.org/2000/svg"
    viewBox="0 0 56 56"
    id="vector">
    <path
        id="path"
        d="M 36.985 0 L 7.963 0 C 7.155 0 6.5 0.655 6.5 1.926 L 6.5 55 C 6.5 55.345 7.155 56 7.963 56 L 48.037 56 C 48.845 56 49.5 55.345 49.5 55 L 49.5 12.978 C 49.5 12.282 49.407 12.058 49.243 11.893 L 37.607 0.257 C 37.442 0.093 37.218 0 36.985 0 Z"
        fill="#e9e9e0"/>
    <path
        id="path_1"
        d="M 37.5 0.151 L 37.5 12 L 49.349 12 Z"
        fill="#d9d7ca"/>
    <path
        id="path_2"
        d="M 18.931 14.431 M 14.362 14.431 C 14.362 13.22 14.844 12.057 15.7 11.2 C 16.557 10.344 17.72 9.862 18.931 9.862 C 20.142 9.862 21.305 10.344 22.162 11.2 C 23.018 12.057 23.5 13.22 23.5 14.431 C 23.503 15.398 23.199 16.341 22.633 17.124 C 22.066 17.907 21.265 18.491 20.346 18.79 C 19.426 19.089 18.436 19.089 17.516 18.79 C 16.597 18.491 15.796 17.907 15.229 17.124 C 14.663 16.341 14.359 15.398 14.362 14.431"
        fill="#f3d55b"/>
    <path
        id="path_3"
        d="M 6.5 39 L 17.5 39 L 49.5 39 L 49.5 28 L 39.5 18.5 L 29 30 L 23.517 24.517 Z"
        fill="#26b99a"/>
    <path
        id="path_4"
        d="M 48.037 56 L 7.963 56 C 7.155 56 6.5 55.345 6.5 54.537 L 6.5 39 L 49.5 39 L 49.5 54.537 C 49.5 55.345 48.845 56 48.037 56 Z"
        fill="#14a085"/>
    <path
        id="path_5"
        d="M 21.426 42.65 L 21.426 50.498 C 21.426 50.972 21.339 51.371 21.166 51.694 C 20.993 52.017 20.76 52.277 20.469 52.473 C 20.177 52.669 19.842 52.806 19.464 52.883 C 19.085 52.961 18.696 53 18.295 53 C 18.094 53 17.859 52.979 17.591 52.938 C 17.322 52.897 17.044 52.834 16.757 52.747 C 16.47 52.66 16.194 52.562 15.93 52.453 C 15.665 52.344 15.442 52.221 15.26 52.084 L 15.957 50.977 C 16.048 51.04 16.178 51.107 16.347 51.175 C 16.515 51.243 16.7 51.307 16.901 51.366 C 17.101 51.426 17.311 51.477 17.53 51.523 C 17.749 51.569 17.954 51.591 18.145 51.591 C 18.628 51.591 19.013 51.497 19.3 51.311 C 19.587 51.125 19.739 50.807 19.758 50.361 L 19.758 42.65 L 21.426 42.65 Z"
        fill="#ffffff"/>
    <path
        id="path_6"
        d="M 25.514 52.932 L 23.873 52.932 L 23.873 42.855 L 26.771 42.855 C 27.199 42.855 27.623 42.923 28.042 43.06 C 28.461 43.197 28.837 43.402 29.17 43.675 C 29.503 43.948 29.772 44.279 29.977 44.666 C 30.182 45.053 30.285 45.488 30.285 45.972 C 30.285 46.483 30.198 46.945 30.025 47.36 C 29.852 47.775 29.61 48.124 29.3 48.406 C 28.99 48.688 28.616 48.907 28.179 49.062 C 27.742 49.217 27.258 49.294 26.73 49.294 L 25.513 49.294 L 25.513 52.932 Z M 25.514 44.1 L 25.514 48.092 L 27.018 48.092 C 27.218 48.092 27.416 48.058 27.613 47.989 C 27.809 47.921 27.989 47.809 28.153 47.654 C 28.317 47.499 28.449 47.283 28.549 47.005 C 28.649 46.727 28.699 46.383 28.699 45.973 C 28.699 45.809 28.676 45.619 28.631 45.406 C 28.585 45.192 28.492 44.987 28.351 44.791 C 28.209 44.595 28.011 44.431 27.756 44.299 C 27.5 44.166 27.163 44.1 26.744 44.1 L 25.514 44.1 Z"
        fill="#ffffff"/>
    <path
        id="path_7"
        d="M 39.5 47.736 L 39.5 51.632 C 39.29 51.897 39.056 52.112 38.796 52.281 C 38.536 52.45 38.263 52.589 37.976 52.698 C 37.689 52.807 37.393 52.885 37.087 52.93 C 36.781 52.978 36.479 53 36.178 53 C 35.576 53 35.023 52.891 34.517 52.672 C 34.011 52.453 33.569 52.13 33.191 51.701 C 32.813 51.272 32.516 50.735 32.302 50.088 C 32.088 49.441 31.981 48.693 31.981 47.846 C 31.981 46.999 32.088 46.253 32.302 45.611 C 32.516 44.968 32.812 44.433 33.191 44.005 C 33.569 43.576 34.013 43.251 34.524 43.027 C 35.034 42.803 35.586 42.692 36.178 42.692 C 36.725 42.692 37.235 42.783 37.709 42.965 C 38.183 43.148 38.606 43.421 38.98 43.785 L 37.845 44.797 C 37.626 44.532 37.375 44.341 37.093 44.223 C 36.81 44.105 36.519 44.045 36.218 44.045 C 35.881 44.045 35.559 44.108 35.254 44.236 C 34.948 44.364 34.675 44.58 34.434 44.885 C 34.192 45.191 34.003 45.584 33.867 46.068 C 33.731 46.552 33.657 47.143 33.648 47.845 C 33.657 48.529 33.728 49.121 33.86 49.622 C 33.992 50.123 34.174 50.533 34.407 50.852 C 34.64 51.171 34.904 51.408 35.2 51.563 C 35.496 51.718 35.808 51.795 36.137 51.795 C 36.237 51.795 36.371 51.788 36.54 51.774 C 36.708 51.76 36.877 51.738 37.046 51.706 C 37.214 51.674 37.376 51.631 37.531 51.576 C 37.686 51.521 37.8 51.444 37.873 51.344 L 37.873 48.856 L 36.164 48.856 L 36.164 47.735 L 39.5 47.735 Z"
        fill="#ffffff"/>
</svg>
